# xmcd
# 
# Track frame offsets:
#     182
#     28777
#     55067
#     84887
#     110612
#     159465
#     187102
#     233010
# 
# Disc length: 3598
# 
# Revision: 4
# Processed by: cddbd v1.5.2PL0 Copyright (c) Steve Scherf et al.
# Submitted via: BonkEnc v1.0.8
# 
DISCID=5c0e0c08
DTITLE=Kenny Barron, Toninho Horta, Nico Assumpcao, Victor Lewis, Mino Cinelu - Sambao
DYEAR=1992
DGENRE=Contemporary Jazz
TTITLE0=Sambao
TTITLE1=Yalele
TTITLE2=Bacchanal
TTITLE3=Belem
TTITLE4=Encounter
TTITLE5=Ritual
TTITLE6=Gardenia
TTITLE7=On The Other Side
EXTD=YEAR: 1992
EXTT0=
EXTT1=
EXTT2=
EXTT3=
EXTT4=
EXTT5=
EXTT6=
EXTT7=
PLAYORDER=
